HIERARCHY
ROOT Hips
{
	OFFSET 0.000000 35.069874 -0.029489
	CHANNELS 6 Xposition Yposition Zposition Xrotation Yrotation Zrotation 
	JOINT Spine
	{
		OFFSET 0.000000 6.876060 0.125662
		CHANNELS 3 Xrotation Yrotation Zrotation
		JOINT Spine1
		{
			OFFSET 0.000000 5.730046 0.104717
			CHANNELS 3 Xrotation Yrotation Zrotation
			JOINT Spine1_split
			{
				OFFSET 0.000000 5.730046 0.104717
				CHANNELS 3 Xrotation Yrotation Zrotation
				JOINT Spine2
				{
					OFFSET 0.000000 5.730046 0.104717
					CHANNELS 3 Xrotation Yrotation Zrotation
					JOINT Neck
					{
						OFFSET 0.000000 10.314075 0.188489
						CHANNELS 3 Xrotation Yrotation Zrotation
						JOINT Head
						{
							OFFSET 0.000000 7.643753 -2.377445
							CHANNELS 3 Xrotation Yrotation Zrotation
							JOINT HeadTop_End
							{
								OFFSET 0.000000 43.788605 -13.619637
								CHANNELS 3 Xrotation Yrotation Zrotation
								End Site
								{
									OFFSET 0.000000 0.000000 0.000000
								}
							}
						}
					}
					JOINT LeftShoulder
					{
						OFFSET 2.196093 4.412501 0.087498
						CHANNELS 3 Xrotation Yrotation Zrotation
						JOINT LeftShoulder_split
						{
							OFFSET 2.196093 4.412501 0.087498
							CHANNELS 3 Xrotation Yrotation Zrotation
							JOINT LeftArm
							{
								OFFSET 8.774866 -2.970879 -0.026997
								CHANNELS 3 Xrotation Yrotation Zrotation
								JOINT LeftForeArm
								{
									OFFSET 8.450586 -0.797432 -0.648343
									CHANNELS 3 Xrotation Yrotation Zrotation
									JOINT LeftHand
									{
										OFFSET 18.458662 0.962311 0.193148
										CHANNELS 3 Xrotation Yrotation Zrotation
										JOINT LeftHandThumb1
										{
											OFFSET 2.379990 -1.333382 2.680594
											CHANNELS 3 Xrotation Yrotation Zrotation
											JOINT LeftHandThumb2
											{
												OFFSET 1.903984 -1.066746 2.144473
												CHANNELS 3 Xrotation Yrotation Zrotation
												JOINT LeftHandThumb3
												{
													OFFSET 0.966393 -1.489639 2.964555
													CHANNELS 3 Xrotation Yrotation Zrotation
													JOINT LeftHandThumb4
													{
														OFFSET 1.205181 -0.823021 1.625701
														CHANNELS 3 Xrotation Yrotation Zrotation
														End Site
														{
															OFFSET 0.000000 0.000000 0.000000
														}
													}
												}
											}
										}
										JOINT LeftHandIndex1
										{
											OFFSET 7.830624 -0.787468 2.563931
											CHANNELS 3 Xrotation Yrotation Zrotation
											JOINT LeftHandIndex2
											{
												OFFSET 3.312897 -0.052605 1.515312
												CHANNELS 3 Xrotation Yrotation Zrotation
												JOINT LeftHandIndex3
												{
													OFFSET 3.460667 -0.207008 1.581951
													CHANNELS 3 Xrotation Yrotation Zrotation
													JOINT LeftHandIndex4
													{
														OFFSET 2.183182 0.110458 0.999585
														CHANNELS 3 Xrotation Yrotation Zrotation
														End Site
														{
															OFFSET 0.000000 0.000000 0.000000
														}
													}
												}
											}
										}
										JOINT LeftHandMiddle1
										{
											OFFSET 8.556145 -0.261200 0.258753
											CHANNELS 3 Xrotation Yrotation Zrotation
											JOINT LeftHandMiddle2
											{
												OFFSET 3.828903 -0.489014 -0.111505
												CHANNELS 3 Xrotation Yrotation Zrotation
												JOINT LeftHandMiddle3
												{
													OFFSET 3.696209 -0.166595 -0.107596
													CHANNELS 3 Xrotation Yrotation Zrotation
													JOINT LeftHandMiddle4
													{
														OFFSET 2.259281 0.534500 -0.065675
														CHANNELS 3 Xrotation Yrotation Zrotation
														End Site
														{
															OFFSET 0.000000 0.000000 0.000000
														}
													}
												}
											}
										}
										JOINT LeftHandRing1
										{
											OFFSET 8.509293 -0.556679 -3.044941
											CHANNELS 3 Xrotation Yrotation Zrotation
											JOINT LeftHandRing2
											{
												OFFSET 2.995171 -0.303261 -0.843591
												CHANNELS 3 Xrotation Yrotation Zrotation
												JOINT LeftHandRing3
												{
													OFFSET 2.968273 -0.101997 -0.834287
													CHANNELS 3 Xrotation Yrotation Zrotation
													JOINT LeftHandRing4
													{
														OFFSET 1.521358 -0.461468 -0.418735
														CHANNELS 3 Xrotation Yrotation Zrotation
														End Site
														{
															OFFSET 0.000000 0.000000 0.000000
														}
													}
												}
											}
										}
									}
								}
							}
						}
					}
					JOINT RightShoulder
					{
						OFFSET -2.196075 4.412512 0.070694
						CHANNELS 3 Xrotation Yrotation Zrotation
						JOINT RightShoulder_split
						{
							OFFSET -2.196075 4.412512 0.070694
							CHANNELS 3 Xrotation Yrotation Zrotation
							JOINT RightArm
							{
								OFFSET -8.774886 -2.970947 -0.094209
								CHANNELS 3 Xrotation Yrotation Zrotation
								JOINT RightForeArm
								{
									OFFSET -8.450586 -0.797386 -0.330665
									CHANNELS 3 Xrotation Yrotation Zrotation
									JOINT RightHand
									{
										OFFSET -18.458664 0.962341 0.025780
										CHANNELS 3 Xrotation Yrotation Zrotation
										JOINT RightHandThumb1
										{
											OFFSET -2.390282 -1.240040 2.604684
											CHANNELS 3 Xrotation Yrotation Zrotation
											JOINT RightHandThumb2
											{
												OFFSET -1.912228 -0.992111 2.083740
												CHANNELS 3 Xrotation Yrotation Zrotation
												JOINT RightHandThumb3
												{
													OFFSET -0.876358 -1.555370 2.930126
													CHANNELS 3 Xrotation Yrotation Zrotation
													JOINT RightHandThumb4
													{
														OFFSET -1.227077 -0.755932 1.835223
														CHANNELS 3 Xrotation Yrotation Zrotation
														End Site
														{
															OFFSET 0.000000 0.000000 0.000000
														}
													}
												}
											}
										}
										JOINT RightHandIndex1
										{
											OFFSET -8.716801 -0.633743 3.098187
											CHANNELS 3 Xrotation Yrotation Zrotation
											JOINT RightHandIndex2
											{
												OFFSET -3.319706 -0.240585 1.198087
												CHANNELS 3 Xrotation Yrotation Zrotation
												JOINT RightHandIndex3
												{
													OFFSET -3.153255 -0.154724 1.138827
													CHANNELS 3 Xrotation Yrotation Zrotation
													JOINT RightHandIndex4
													{
														OFFSET -1.818684 -0.003197 0.655154
														CHANNELS 3 Xrotation Yrotation Zrotation
														End Site
														{
															OFFSET 0.000000 0.000000 0.000000
														}
													}
												}
											}
										}
										JOINT RightHandMiddle1
										{
											OFFSET -8.158691 -0.528496 0.196552
											CHANNELS 3 Xrotation Yrotation Zrotation
											JOINT RightHandMiddle2
											{
												OFFSET -3.890194 -0.261169 -0.136423
												CHANNELS 3 Xrotation Yrotation Zrotation
												JOINT RightHandMiddle3
												{
													OFFSET -3.903057 -0.179909 -0.137173
													CHANNELS 3 Xrotation Yrotation Zrotation
													JOINT RightHandMiddle4
													{
														OFFSET -2.366261 0.198380 -0.083987
														CHANNELS 3 Xrotation Yrotation Zrotation
														End Site
														{
															OFFSET 0.000000 0.000000 0.000000
														}
													}
												}
											}
										}
										JOINT RightHandRing1
										{
											OFFSET -7.616104 -0.395126 -2.681268
											CHANNELS 3 Xrotation Yrotation Zrotation
											JOINT RightHandRing2
											{
												OFFSET -3.235790 -0.462120 -1.101476
												CHANNELS 3 Xrotation Yrotation Zrotation
												JOINT RightHandRing3
												{
													OFFSET -3.179264 -0.138618 -1.084847
													CHANNELS 3 Xrotation Yrotation Zrotation
													JOINT RightHandRing4
													{
														OFFSET -1.963291 -0.101624 -0.668250
														CHANNELS 3 Xrotation Yrotation Zrotation
														End Site
														{
															OFFSET 0.000000 0.000000 0.000000
														}
													}
												}
											}
										}
									}
								}
							}
						}
					}
				}
			}
		}
	}
	JOINT LeftUpLeg
	{
		OFFSET 10.205382 -3.823519 0.155145
		CHANNELS 3 Xrotation Yrotation Zrotation
		JOINT LeftLeg
		{
			OFFSET 0.283732 -12.998343 0.567794
			CHANNELS 3 Xrotation Yrotation Zrotation
			JOINT LeftFoot
			{
				OFFSET -1.058953 -10.688869 -2.184322
				CHANNELS 3 Xrotation Yrotation Zrotation
				JOINT LeftToeBase
				{
					OFFSET 0.108145 -7.191069 7.560211
					CHANNELS 3 Xrotation Yrotation Zrotation
					JOINT LeftToe_End
					{
						OFFSET 0.070226 0.081726 4.490266
						CHANNELS 3 Xrotation Yrotation Zrotation
						End Site
						{
							OFFSET 0.000000 0.000000 0.000000
						}
					}
				}
			}
		}
	}
	JOINT RightUpLeg
	{
		OFFSET -10.205383 -3.823513 0.005508
		CHANNELS 3 Xrotation Yrotation Zrotation
		JOINT RightLeg
		{
			OFFSET -0.283728 -12.998341 0.610627
			CHANNELS 3 Xrotation Yrotation Zrotation
			JOINT RightFoot
			{
				OFFSET 1.058956 -10.688892 -1.945833
				CHANNELS 3 Xrotation Yrotation Zrotation
				JOINT RightToeBase
				{
					OFFSET -0.108150 -7.191040 7.372945
					CHANNELS 3 Xrotation Yrotation Zrotation
					JOINT RightToe_End
					{
						OFFSET -0.070229 0.081738 4.479398
						CHANNELS 3 Xrotation Yrotation Zrotation
						End Site
						{
							OFFSET 0.000000 0.000000 0.000000
						}
					}
				}
			}
		}
	}
}
MOTION
Frames: 6
Frame Time: 0.016667
-0.391913 29.753155 -1.369211 -16.020470 -38.391380 -6.923850 6.007250 1.604057 -0.766710 12.035808 3.214027 -1.555561 0.000000 0.000000 0.000000 12.035806 3.214028 -1.555566 0.808830 2.930021 5.847937 3.843911 16.036794 -7.029033 0.000003 0.000000 -0.000000 -0.675806 6.367328 14.365192 0.000000 0.000000 0.000000 -28.283948 -41.459788 7.337623 9.415428 -24.354559 -18.370335 -3.340765 -7.569157 21.091301 19.569296 8.727932 -15.336512 -1.217543 26.690139 12.762040 -1.210720 -15.365549 -7.913963 -0.000004 0.000000 0.000002 12.647896 8.501992 -46.521132 17.428018 -9.773576 -46.039901 2.389649 -0.072721 -5.225863 -0.000001 0.000003 0.000000 -2.531045 -3.480115 -43.605301 -2.781071 -1.200040 -52.016719 -0.455821 0.066367 -15.878037 -0.000003 0.000000 -0.000000 -10.849796 -2.448562 -49.095898 -12.866276 5.158119 -51.503277 3.833916 0.767653 13.845956 0.000000 0.000004 0.000000 0.346729 -1.487437 -4.054121 0.000000 0.000000 0.000000 -25.436647 30.479565 -9.019599 -1.889808 28.368395 19.231156 -18.249897 20.343367 -0.501155 35.217517 1.956915 34.952393 -0.704906 -37.767347 -16.787393 3.562222 14.748200 8.652809 0.000001 -0.000001 0.000003 6.024978 -7.592226 31.924485 12.191252 5.327276 39.043588 0.862180 0.064296 2.396429 0.000003 0.000002 0.000002 -3.041229 2.650298 35.822805 -1.769966 0.650382 35.392377 -0.262376 0.003294 7.422940 0.000003 0.000002 -0.000002 -8.806281 5.874016 36.280513 -13.040614 -3.009705 39.835350 0.144672 -0.044672 -0.418783 -0.000000 -0.000002 0.000001 -37.649953 -2.060589 18.441832 45.069690 -14.043138 1.944331 16.571248 -1.194185 -19.817080 -17.825993 0.234479 1.090427 -0.000001 -0.000002 -0.000000 21.387646 -20.015787 -21.546260 37.951024 -0.616175 -0.131345 -40.059883 -12.965641 23.086045 -11.739199 -3.077426 -1.215521 -0.000000 -0.000000 0.000000 
-1.289328 32.058823 -0.954489 -16.432952 -38.834287 -7.107587 5.405240 1.714002 -0.922591 10.847846 3.499697 -2.042203 0.000000 0.000000 0.000000 10.847841 3.499695 -2.042203 3.765078 2.490154 6.424214 6.751133 15.504516 -8.701757 -0.000002 -0.000001 0.000000 -1.740849 10.008588 19.337973 0.000000 0.000000 0.000000 -25.326919 -38.963723 11.421573 10.395936 -24.024236 -18.410701 -3.516001 -9.105335 21.126858 18.833779 9.106997 -14.420864 -1.220293 26.685368 12.762781 -1.210721 -15.365552 -7.913964 0.000004 0.000000 0.000003 12.555836 9.128667 -44.963863 17.057059 -9.188268 -44.608590 2.389648 -0.072722 -5.225861 0.000001 0.000003 -0.000001 -2.425145 -3.447054 -41.960564 -2.663980 -1.173086 -50.383754 -0.455823 0.066362 -15.878037 -0.000000 0.000001 0.000002 -10.676636 -2.772720 -47.492443 -12.581445 4.821094 -49.959429 3.833917 0.767652 13.845955 -0.000001 -0.000001 -0.000003 0.297388 -2.580776 -7.021525 0.000000 0.000000 0.000000 -24.493272 32.377142 -11.675725 1.878007 22.102144 17.735331 -18.945857 20.501931 4.105237 35.026279 1.125275 34.276608 -0.686826 -37.814769 -16.792331 3.562219 14.748195 8.652811 -0.000001 -0.000001 0.000002 6.180976 -7.938002 31.385436 12.075132 5.165198 38.515413 0.862182 0.064291 2.396430 0.000000 -0.000003 -0.000000 -3.006403 2.639061 35.247970 -1.734050 0.635753 34.832995 -0.262380 0.003294 7.422939 0.000002 -0.000000 0.000002 -8.837336 6.074440 35.709113 -12.892598 -2.905085 39.316123 0.144666 -0.044668 -0.418785 0.000004 -0.000001 0.000001 -29.143594 2.111987 19.037704 25.399839 -14.579251 2.310838 36.724851 -6.273566 -21.341500 -23.354059 -0.086696 -0.167820 0.000000 -0.000001 -0.000000 24.634771 -19.669970 -20.093127 26.243752 1.211494 0.860416 -24.247614 -8.841861 21.583642 -28.663702 -1.153927 -4.150331 0.000001 -0.000002 -0.000001 
-2.272673 34.134022 -0.761167 -15.773203 -39.674090 -6.581177 5.047867 1.809995 -0.969275 10.148497 3.743868 -2.337038 0.000000 0.000000 0.000000 10.148497 3.743880 -2.337038 6.185551 2.219082 6.632938 8.363093 15.206687 -10.348304 -0.000000 -0.000000 0.000000 -3.167093 13.780731 23.049544 0.000000 0.000000 0.000000 -23.898002 -34.641914 13.391451 8.966509 -25.496405 -18.175265 -3.888528 -10.250328 22.709979 17.935617 9.525911 -13.325181 -1.217588 26.692425 12.764693 -1.210717 -15.365549 -7.913965 0.000000 -0.000001 -0.000003 12.426380 9.866662 -43.172355 16.610539 -8.523355 -42.952116 2.389649 -0.072721 -5.225861 -0.000002 -0.000002 0.000003 -2.307683 -3.422778 -40.056464 -2.528141 -1.137457 -48.473593 -0.455823 0.066363 -15.878042 0.000000 -0.000001 -0.000002 -10.460113 -3.165435 -45.613892 -12.234159 4.434307 -48.138429 3.833915 0.767653 13.845960 0.000001 -0.000000 0.000000 0.192148 -3.941865 -9.365130 0.000000 0.000000 0.000000 -24.600690 32.836524 -12.794181 3.384589 17.219971 16.260385 -19.395808 19.821142 9.299693 34.485185 0.051027 33.127681 -0.728104 -37.672649 -16.775836 3.562217 14.748199 8.652808 -0.000003 -0.000002 -0.000001 6.298999 -8.375661 30.596577 11.901846 4.929179 37.739797 0.862184 0.064294 2.396429 0.000003 0.000001 -0.000001 -2.956998 2.626210 34.403629 -1.678936 0.612752 33.968764 -0.262372 0.003296 7.422939 0.000001 0.000001 -0.000001 -8.811120 6.338246 34.865619 -12.659794 -2.744305 38.504502 0.144673 -0.044670 -0.418783 0.000002 -0.000002 0.000002 -26.135726 3.669783 18.473290 16.848267 -20.050521 2.854895 45.105630 -8.321957 -21.463762 -11.152896 -0.592884 -2.484702 0.000001 -0.000004 0.000001 21.737676 -18.658789 -20.602248 21.794352 4.927318 0.660456 -7.630384 -4.174423 21.029097 -28.153720 1.853332 -7.178186 -0.000000 0.000002 -0.000000 
-2.798910 36.602894 -0.745899 -14.525881 -39.985884 -5.145851 5.000889 1.912307 -0.993618 10.072716 3.936684 -2.636166 0.000000 0.000000 0.000000 10.072719 3.936684 -2.636163 8.079801 2.146879 6.397281 8.432124 15.201848 -11.751662 -0.000001 -0.000000 0.000001 -4.630846 17.333266 24.980748 0.000000 0.000000 0.000000 -23.667586 -28.845200 14.226465 4.896610 -28.677543 -18.141455 -5.018169 -10.917998 26.372113 16.878922 9.966779 -12.061691 -1.207886 26.714524 12.767791 -1.210715 -15.365549 -7.913961 -0.000000 -0.000006 -0.000001 12.252356 10.703191 -41.184941 16.091308 -7.798115 -41.103822 2.389648 -0.072723 -5.225868 0.000001 0.000001 -0.000001 -2.182778 -3.411254 -37.931800 -2.376549 -1.092265 -46.320140 -0.455824 0.066363 -15.878037 -0.000001 -0.000000 0.000002 -10.197853 -3.622086 -43.492073 -11.824900 4.008655 -46.068202 3.833918 0.767650 13.845959 -0.000001 -0.000001 0.000002 0.029629 -5.466255 -10.904143 0.000000 0.000000 0.000000 -25.326208 31.349656 -13.305104 2.207974 14.238020 14.962288 -20.121952 18.795699 13.040089 33.613424 -1.217550 31.542739 -0.825181 -37.353663 -16.739028 3.562210 14.748204 8.652810 -0.000000 -0.000004 0.000001 6.374479 -8.893158 29.592078 11.675746 4.630923 36.747685 0.862185 0.064292 2.396430 -0.000001 -0.000003 -0.000001 -2.895529 2.612820 33.323813 -1.606434 0.581137 32.823785 -0.262377 0.003294 7.422941 0.000002 0.000001 -0.000003 -8.728822 6.658094 33.780719 -12.345633 -2.534944 37.420489 0.144672 -0.044672 -0.418779 0.000002 -0.000004 0.000002 -23.625836 4.726430 16.426236 9.031479 -27.023795 1.952430 50.549506 -10.919667 -24.711138 2.116771 -1.242522 -9.204990 -0.000001 -0.000005 0.000001 18.161859 -17.837906 -24.453126 15.615943 6.522487 -1.118472 8.539118 -1.194510 33.235820 -14.296420 1.564187 -7.538382 -0.000001 0.000001 0.000000 
-2.988690 39.215508 -0.830999 -13.141569 -39.438031 -3.083837 5.141388 1.989883 -1.081559 10.376425 4.037868 -3.105353 0.000000 0.000000 0.000000 10.376426 4.037864 -3.105353 9.652194 2.282493 5.731343 7.016951 15.557564 -12.731641 -0.000000 -0.000000 0.000000 -5.745109 20.421246 24.859390 0.000000 0.000000 0.000000 -24.015437 -21.973294 15.052475 -1.510194 -33.118447 -19.091333 -7.285747 -11.145359 31.897339 15.696509 10.415472 -10.664189 -1.193153 26.745974 12.771207 -1.210723 -15.365549 -7.913964 -0.000002 0.000000 -0.000003 12.024006 11.617733 -39.031451 15.502883 -7.031153 -39.096614 2.389653 -0.072719 -5.225862 -0.000002 0.000001 -0.000002 -2.051703 -3.403881 -35.627281 -2.213612 -1.036844 -43.972744 -0.455825 0.066363 -15.878037 -0.000001 -0.000001 -0.000001 -9.889632 -4.122740 -41.175324 -11.360022 3.560325 -43.801050 3.833916 0.767651 13.845949 0.000001 -0.000002 0.000002 -0.169284 -7.015042 -11.510761 0.000000 0.000000 0.000000 -26.268122 27.778565 -13.997386 -1.653538 13.256070 13.903575 -21.693314 17.946474 13.783486 32.422163 -2.622229 29.574900 -0.968852 -36.887895 -16.684586 3.562214 14.748199 8.652807 -0.000002 -0.000002 -0.000001 6.402359 -9.480232 28.400536 11.401000 4.282429 35.570440 0.862185 0.064296 2.396435 0.000001 0.000001 0.000000 -2.823868 2.597223 32.043382 -1.520400 0.541474 31.450070 -0.262376 0.003296 7.422937 0.000000 -0.000001 -0.000001 -8.591894 7.023886 32.491862 -11.962783 -2.290972 36.115595 0.144674 -0.044670 -0.418784 0.000003 -0.000001 0.000003 -21.205577 5.308546 14.645753 2.548968 -29.573032 -0.669116 54.855561 -14.439810 -29.783293 2.228440 -0.989924 -8.712292 0.000000 -0.000003 -0.000000 10.931819 -16.730157 -29.262859 22.790811 7.828496 1.105716 8.555487 -1.581208 30.768459 -12.017043 2.615878 -9.290434 0.000001 0.000000 0.000000 
-2.898272 41.568977 -0.890343 -11.429291 -38.668665 -0.734102 5.439366 2.039184 -1.137021 10.994590 4.056369 -3.534894 0.000000 0.000000 0.000000 10.994591 4.056363 -3.534898 11.172542 2.606228 4.720018 4.460491 16.291500 -13.182304 -0.000003 0.000000 0.000000 -6.254050 22.882983 22.783795 0.000000 0.000000 0.000000 -24.335556 -14.479041 16.562652 -9.539181 -38.039714 -21.831195 -10.677684 -11.049102 38.334382 14.464947 10.866935 -9.198936 -1.181126 26.767194 12.772951 -1.210722 -15.365550 -7.913963 -0.000002 0.000000 -0.000003 11.726696 12.577715 -36.728656 14.850518 -6.240651 -36.962498 2.389650 -0.072722 -5.225863 -0.000001 -0.000001 -0.000001 -1.911503 -3.373591 -33.186356 -2.044971 -0.971867 -41.504577 -0.455822 0.066366 -15.878042 -0.000001 -0.000000 0.000002 -9.539912 -4.625615 -38.737821 -10.855162 3.111074 -41.426880 3.833918 0.767648 13.845955 -0.000000 0.000000 -0.000001 -0.377089 -8.457467 -11.128325 0.000000 0.000000 0.000000 -27.321088 22.493141 -15.166041 -7.832707 14.000340 13.228984 -24.273044 17.561788 10.990804 30.920505 -4.097602 27.303326 -1.141328 -36.331948 -16.617971 3.562213 14.748200 8.652817 0.000003 -0.000001 0.000002 6.377282 -10.130379 27.041400 11.082124 3.895466 34.238833 0.862186 0.064294 2.396435 0.000001 -0.000001 -0.000001 -2.742292 2.573620 30.597239 -1.426977 0.495602 29.940810 -0.262377 0.003297 7.422937 0.000003 0.000001 -0.000001 -8.401757 7.422150 31.045375 -11.538019 -2.034485 34.688188 0.144672 -0.044673 -0.418783 0.000002 0.000004 0.000001 -22.885474 4.873468 13.339902 5.691648 -28.199030 -2.076675 55.564979 -16.700929 -33.710081 1.866843 -0.964173 -7.749282 -0.000006 -0.000005 0.000002 2.788230 -15.423780 -34.243160 32.818485 11.087753 4.765892 6.304781 -2.870874 26.553095 -11.789549 3.003849 -9.396076 -0.000003 0.000001 0.000000 
